<svg id="Group_378" data-name="Group 378" xmlns="http://www.w3.org/2000/svg" xmlns:xlink="http://www.w3.org/1999/xlink" width="40.169" height="40.169" viewBox="0 0 40.169 40.169">
  <defs>
    <clipPath id="clip-path">
      <path id="Path_209" data-name="Path 209" d="M141.467,40.255l-5.854,5.853h-3.359a2.926,2.926,0,0,1,0-5.853Zm8.347,0h-4.973l6.07,6.07h0a2.935,2.935,0,0,1,1.829,2.71V43.181A2.935,2.935,0,0,0,149.815,40.255Z" transform="translate(-129.328 -40.255)" fill="none" stroke="#fff" stroke-linecap="round" stroke-linejoin="round" stroke-width="1.12"/>
    </clipPath>
    <clipPath id="clip-path-2">
      <path id="Path_211" data-name="Path 211" d="M151.42,46.246,144.874,39.7a1.717,1.717,0,0,0-2.423,0l-6.329,6.328h14.2A2.894,2.894,0,0,1,151.42,46.246Z" transform="translate(-136.122 -39.2)" fill="none" stroke="#fff" stroke-linecap="round" stroke-linejoin="round" stroke-width="1.12"/>
    </clipPath>
    <clipPath id="clip-path-3">
      <path id="Path_216" data-name="Path 216" d="M145.912,54.637a2.935,2.935,0,0,1,2.926-2.926h3.9V49.272a2.935,2.935,0,0,0-2.926-2.927h-17.56a2.935,2.935,0,0,1-2.926-2.926V60a2.935,2.935,0,0,0,2.926,2.926h17.56A2.935,2.935,0,0,0,152.741,60V57.564h-3.9A2.936,2.936,0,0,1,145.912,54.637Z" transform="translate(-129.328 -43.418)" fill="none" stroke="#fff" stroke-linecap="round" stroke-linejoin="round" stroke-width="1.12"/>
    </clipPath>
  </defs>
  <circle id="Ellipse_16" data-name="Ellipse 16" cx="20.084" cy="20.084" r="20.084" fill="#029ed0"/>
  <g id="Group_361" data-name="Group 361" transform="translate(8.226 7.165)">
    <g id="Group_355" data-name="Group 355" transform="translate(0 0.976)">
      <g id="Group_354" data-name="Group 354" clip-path="url(#clip-path)">
        <path id="Path_208" data-name="Path 208" d="M149.815,40.255h-17.56a2.926,2.926,0,0,0,0,5.853h17.56a2.935,2.935,0,0,1,2.926,2.927V43.181A2.935,2.935,0,0,0,149.815,40.255Z" transform="translate(-129.328 -40.255)" fill="none" stroke="#fff" stroke-linecap="round" stroke-linejoin="round" stroke-width="1.12"/>
      </g>
      <path id="Path_210" data-name="Path 210" d="M141.467,40.255l-5.854,5.853h-3.359a2.926,2.926,0,0,1,0-5.853Zm8.347,0h-4.973l6.07,6.07h0a2.935,2.935,0,0,1,1.829,2.71V43.181A2.935,2.935,0,0,0,149.815,40.255Z" transform="translate(-129.328 -40.255)" fill="none" stroke="#fff" stroke-linecap="round" stroke-linejoin="round" stroke-width="1.12"/>
    </g>
    <g id="Group_358" data-name="Group 358" transform="translate(6.286)">
      <g id="Group_357" data-name="Group 357" clip-path="url(#clip-path-2)">
        <g id="Group_356" data-name="Group 356" transform="translate(-6.998 -0.712)">
          <rect id="Rectangle_767" data-name="Rectangle 767" width="20.561" height="14.564" rx="3.306" transform="translate(0 14.539) rotate(-45)" stroke-width="1.12" stroke="#fff" stroke-linecap="round" stroke-linejoin="round" fill="none"/>
          <rect id="Rectangle_768" data-name="Rectangle 768" width="20.561" height="2.57" transform="translate(2.423 16.962) rotate(-45)" stroke-width="1.12" stroke="#fff" stroke-linecap="round" stroke-linejoin="round" fill="none"/>
        </g>
      </g>
      <path id="Path_212" data-name="Path 212" d="M151.42,46.246,144.874,39.7a1.717,1.717,0,0,0-2.423,0l-6.329,6.328h14.2A2.894,2.894,0,0,1,151.42,46.246Z" transform="translate(-136.122 -39.2)" fill="none" stroke="#fff" stroke-linecap="round" stroke-linejoin="round" stroke-width="1.12"/>
    </g>
    <path id="Path_213" data-name="Path 213" d="M154.634,49.218a1.463,1.463,0,1,1,0,2.926Z" transform="translate(-131.221 -39.95)" fill="none" stroke="#fff" stroke-linecap="round" stroke-linejoin="round" stroke-width="1.12"/>
    <path id="Path_214" data-name="Path 214" d="M154.082,52.263h-3.9a2.935,2.935,0,0,0-2.926,2.926h0a2.936,2.936,0,0,0,2.926,2.927h3.9a1.464,1.464,0,0,0,1.464-1.464V50.8A1.463,1.463,0,0,1,154.082,52.263Z" transform="translate(-130.669 -40.068)" fill="none" stroke="#fff" stroke-linecap="round" stroke-linejoin="round" stroke-width="1.12"/>
    <g id="Group_360" data-name="Group 360" transform="translate(0 3.902)">
      <g id="Group_359" data-name="Group 359" clip-path="url(#clip-path-3)">
        <path id="Path_215" data-name="Path 215" d="M149.815,46.344h-17.56a2.935,2.935,0,0,1-2.926-2.926V60a2.935,2.935,0,0,0,2.926,2.926h17.56A2.935,2.935,0,0,0,152.741,60V49.272A2.935,2.935,0,0,0,149.815,46.344Z" transform="translate(-129.328 -43.418)" fill="none" stroke="#fff" stroke-linecap="round" stroke-linejoin="round" stroke-width="1.12"/>
      </g>
      <path id="Path_217" data-name="Path 217" d="M145.912,54.637a2.935,2.935,0,0,1,2.926-2.926h3.9V49.272a2.935,2.935,0,0,0-2.926-2.927h-17.56a2.935,2.935,0,0,1-2.926-2.926V60a2.935,2.935,0,0,0,2.926,2.926h17.56A2.935,2.935,0,0,0,152.741,60V57.564h-3.9A2.936,2.936,0,0,1,145.912,54.637Z" transform="translate(-129.328 -43.418)" fill="none" stroke="#fff" stroke-linecap="round" stroke-linejoin="round" stroke-width="1.12"/>
    </g>
    <path id="Path_218" data-name="Path 218" d="M150.865,55.5a.488.488,0,1,1-.489-.488A.488.488,0,0,1,150.865,55.5Z" transform="translate(-130.866 -40.383)" fill="none" stroke="#fff" stroke-linecap="round" stroke-linejoin="round" stroke-width="1.12"/>
  </g>
  <g id="Group_363" data-name="Group 363" transform="translate(11.979 17.544)">
    <path id="Path_223" data-name="Path 223" d="M142.181,55.48H135.4a2.346,2.346,0,0,0,.93,1.512,3.054,3.054,0,0,0,1.868.557,3.146,3.146,0,0,0,2.344-.937l1.083,1.244a3.653,3.653,0,0,1-1.471,1.052,5.837,5.837,0,0,1-4.511-.21,4.089,4.089,0,0,1-1.675-1.577,4.464,4.464,0,0,1-.589-2.288,4.524,4.524,0,0,1,.574-2.272,4.078,4.078,0,0,1,1.593-1.577,4.644,4.644,0,0,1,2.3-.566,4.538,4.538,0,0,1,2.256.558,3.956,3.956,0,0,1,1.552,1.568,4.751,4.751,0,0,1,.558,2.337C142.212,55.022,142.2,55.221,142.181,55.48Zm-5.975-2.87a2.412,2.412,0,0,0-.817,1.527h4.9a2.362,2.362,0,0,0-2.443-2.1A2.435,2.435,0,0,0,136.206,52.61Z" transform="translate(-133.384 -50.418)" fill="#fff"/>
  </g>
</svg>
