<svg xmlns="http://www.w3.org/2000/svg" width="53" height="53" viewBox="0 0 53 53">
  <g id="Group_391" data-name="Group 391" transform="translate(-814 1471.87)">
    <g id="Ellipse_39" data-name="Ellipse 39" transform="translate(814 -1471.87)" fill="#fff" stroke="#2699fb" stroke-width="2">
      <circle cx="26.5" cy="26.5" r="26.5" stroke="none"/>
      <circle cx="26.5" cy="26.5" r="25.5" fill="none"/>
    </g>
    <g id="Group_390" data-name="Group 390" transform="translate(824.242 -1458.075)">
      <g id="Group_389" data-name="Group 389" transform="translate(0)">
        <path id="Path_205" data-name="Path 205" d="M1338.452,933v22.035a.547.547,0,0,1-.122-.066,24.214,24.214,0,0,0-8.2-5.012c-1.319-.5-2.691-.864-4.044-1.275a.83.83,0,0,1-.683-.86q0-3.793,0-7.586c0-.526.248-.771.843-.914a27.861,27.861,0,0,0,10.565-4.944C1337.368,933.956,1337.881,933.483,1338.452,933Z" transform="translate(-1313.771 -933)" fill="none" stroke="#2699fb" stroke-linecap="round" stroke-linejoin="round" stroke-miterlimit="10" stroke-width="2"/>
        <path id="Rectangle_786" data-name="Rectangle 786" d="M4.468,0H8.393a0,0,0,0,1,0,0V8.936a0,0,0,0,1,0,0H4.468A4.468,4.468,0,0,1,0,4.468v0A4.468,4.468,0,0,1,4.468,0Z" transform="translate(3.286 6.55)" fill="none" stroke="#2699fb" stroke-linecap="round" stroke-linejoin="round" stroke-miterlimit="10" stroke-width="2"/>
        <path id="Rectangle_787" data-name="Rectangle 787" d="M3.243,0h0a0,0,0,0,1,0,0V7.14a0,0,0,0,1,0,0h0A3.243,3.243,0,0,1,0,3.9V3.243A3.243,3.243,0,0,1,3.243,0Z" transform="translate(0 7.448)" fill="none" stroke="#2699fb" stroke-linecap="round" stroke-linejoin="round" stroke-miterlimit="10" stroke-width="2"/>
        <path id="Path_206" data-name="Path 206" d="M1048.033,1646.854l1.364,6.766a1.878,1.878,0,0,1-1.321,2.292h0a1.878,1.878,0,0,1-2.106-1.6l-1.513-7.509" transform="translate(-1038.932 -1631.274)" fill="none" stroke="#2699fb" stroke-linecap="round" stroke-linejoin="round" stroke-miterlimit="10" stroke-width="2"/>
      </g>
      <line id="Line_15" data-name="Line 15" y1="1.991" x2="3.986" transform="translate(27.767 3.09)" fill="none" stroke="#2699fb" stroke-linecap="round" stroke-miterlimit="10" stroke-width="2"/>
      <line id="Line_16" data-name="Line 16" x2="4.613" transform="translate(27.995 11.052)" fill="none" stroke="#2699fb" stroke-linecap="round" stroke-miterlimit="10" stroke-width="2"/>
      <line id="Line_17" data-name="Line 17" x2="3.986" y2="1.991" transform="translate(27.767 17.024)" fill="none" stroke="#2699fb" stroke-linecap="round" stroke-miterlimit="10" stroke-width="2"/>
    </g>
  </g>
</svg>
