<?xml version="1.0" encoding="utf-8"?>
<!-- Generator: Adobe Illustrator 24.1.3, SVG Export Plug-In . SVG Version: 6.00 Build 0)  -->
<svg version="1.1" id="Layer_1" xmlns="http://www.w3.org/2000/svg" xmlns:xlink="http://www.w3.org/1999/xlink" x="0px" y="0px"
	 viewBox="0 0 99.6 14.3" style="enable-background:new 0 0 99.6 14.3;" xml:space="preserve">
<style type="text/css">
	.st0{fill:#FFFFFF;}
</style>
<g id="Group_10" transform="translate(-90.297 -478.198)">
	<path id="Path_5" class="st0" d="M124.5,489.8c-0.8,0-1.6-0.2-2.3-0.6c-0.7-0.4-1.2-0.9-1.6-1.6c-0.7-1.4-0.7-3.1,0-4.6
		c0.4-0.7,0.9-1.2,1.6-1.6c0.7-0.4,1.5-0.6,2.3-0.6c1.3,0,2.6,0.6,3.5,1.6l2.1-1.9c-0.7-0.8-1.5-1.4-2.4-1.8
		c-2.3-0.9-4.9-0.8-7.1,0.3c-1.1,0.6-2,1.5-2.7,2.5c-0.2,0.3-0.3,0.6-0.5,1l0-4.2h-2.6l-5.1,8.6l-5.2-8.6h-2.6v2.8
		c-0.1-0.2-0.2-0.3-0.2-0.4c-0.5-0.8-1.2-1.4-2.1-1.7c-1-0.4-2.1-0.6-3.2-0.6h-6v13.8h3.2v-3.8h2.8c1.1,0,2.2-0.2,3.2-0.6
		c0.9-0.4,1.6-1,2.1-1.7c0.1-0.1,0.2-0.3,0.2-0.4v6.6h3v-8.1l3.7,6c0.4,0.6,1.1,0.8,1.7,0.4c0.2-0.1,0.3-0.3,0.4-0.4l3.7-6.2l0,8.3
		h3l0-4.2c0.1,0.3,0.3,0.6,0.5,0.9c0.6,1.1,1.6,2,2.7,2.5c1.2,0.6,2.5,0.9,3.8,0.9c1.1,0,2.2-0.2,3.3-0.6c0.9-0.4,1.8-1,2.4-1.8
		l-2.1-1.9C127.1,489.2,125.8,489.8,124.5,489.8z M98.3,485.2c-0.6,0.5-1.4,0.7-2.2,0.6h-2.6V481h2.6c0.8-0.1,1.6,0.2,2.2,0.6
		c0.5,0.4,0.8,1.1,0.7,1.8C99.1,484.1,98.8,484.8,98.3,485.2L98.3,485.2z"/>
	<g id="Group_9" transform="translate(131.393 478.203)">
		<path id="Path_6" class="st0" d="M10.2,6.9h2.9v5.6c-0.8,0.6-1.7,1-2.6,1.3c-1,0.3-2,0.5-3,0.5c-1.3,0-2.7-0.3-3.9-0.9
			c-1.1-0.6-2-1.5-2.7-2.5c-1.3-2.3-1.3-5.1,0-7.4c0.6-1.1,1.6-2,2.7-2.5C4.9,0.3,6.2,0,7.6,0c1.1,0,2.2,0.2,3.3,0.6
			c1,0.4,1.8,1,2.5,1.8l-2.1,1.9c-0.9-1-2.2-1.6-3.6-1.6c-0.8,0-1.6,0.2-2.3,0.6C4.7,3.6,4.2,4.2,3.8,4.8C3,6.3,3,8,3.8,9.4
			c0.4,0.7,0.9,1.2,1.6,1.6c0.7,0.4,1.5,0.6,2.3,0.6c0.9,0,1.7-0.2,2.5-0.6L10.2,6.9z"/>
		<path id="Path_7" class="st0" d="M18.9,13.3c-1.1-0.6-2.1-1.5-2.7-2.6c-1.3-2.3-1.3-5.1,0-7.3c0.6-1.1,1.6-2,2.7-2.6
			c2.4-1.2,5.3-1.2,7.7,0c3.4,1.8,4.7,6.1,2.9,9.5c-0.7,1.2-1.7,2.2-2.9,2.9C24.2,14.6,21.3,14.6,18.9,13.3L18.9,13.3z M25,11
			c0.7-0.4,1.2-0.9,1.5-1.6c0.7-1.4,0.7-3.1,0-4.6c-0.4-0.7-0.9-1.2-1.5-1.6c-1.4-0.7-3-0.7-4.4,0c-0.7,0.4-1.2,0.9-1.5,1.6
			c-0.7,1.4-0.7,3.1,0,4.6c0.4,0.7,0.9,1.2,1.5,1.6C21.9,11.7,23.6,11.7,25,11z"/>
		<path id="Path_8" class="st0" d="M32.7,0.2h3.2v11.2h6.9V14h-8.8c-0.7,0-1.3-0.6-1.3-1.3l0,0L32.7,0.2z"/>
		<path id="Path_9" class="st0" d="M44.6,0.2h6.3c1.4,0,2.7,0.3,4,0.9c1.1,0.5,2,1.4,2.7,2.4c1.3,2.3,1.3,5,0,7.3
			c-0.6,1-1.6,1.9-2.7,2.4c-1.2,0.6-2.6,0.9-4,0.9h-6.3V0.2z M50.7,11.4c1.2,0.1,2.4-0.4,3.3-1.2c1.6-1.8,1.6-4.5,0-6.2
			c-0.9-0.8-2.1-1.2-3.3-1.2h-2.9v8.6L50.7,11.4z"/>
	</g>
</g>
</svg>
