<svg xmlns="http://www.w3.org/2000/svg" xmlns:xlink="http://www.w3.org/1999/xlink" width="40.158" height="40.158" viewBox="0 0 40.158 40.158">
  <defs>
    <clipPath id="clip-path">
      <path id="Path_230" data-name="Path 230" d="M216.8,62.077V50.757h3.087a3.1,3.1,0,0,1,3.087-3.087V43.554h-5.145v0H209.6v0h-5.145V62.077a2.059,2.059,0,0,0,2.058,2.058h12.349A2.058,2.058,0,0,1,216.8,62.077Z" transform="translate(-204.454 -43.554)" fill="none" stroke="#fff" stroke-linecap="round" stroke-linejoin="round" stroke-width="1.113"/>
    </clipPath>
  </defs>
  <g id="Group_379" data-name="Group 379" transform="translate(-2398.011 159.032)">
    <circle id="Ellipse_17" data-name="Ellipse 17" cx="20.079" cy="20.079" r="20.079" transform="translate(2398.011 -159.032)" fill="#df4097"/>
    <g id="Group_370" data-name="Group 370" transform="translate(2406.231 -151.983)">
      <g id="Group_368" data-name="Group 368">
        <g id="Group_367" data-name="Group 367" transform="translate(0 4.142)">
          <g id="Group_366" data-name="Group 366" clip-path="url(#clip-path)">
            <path id="Path_229" data-name="Path 229" d="M222.977,64.135H206.512a2.059,2.059,0,0,1-2.058-2.058V43.554h18.523Z" transform="translate(-204.454 -43.554)" fill="none" stroke="#fff" stroke-linecap="round" stroke-linejoin="round" stroke-width="1.113"/>
          </g>
          <path id="Path_231" data-name="Path 231" d="M216.8,62.077V50.757h3.087a3.1,3.1,0,0,1,3.087-3.087V43.554h-5.145v0H209.6v0h-5.145V62.077a2.059,2.059,0,0,0,2.058,2.058h12.349A2.058,2.058,0,0,1,216.8,62.077Z" transform="translate(-204.454 -43.554)" fill="none" stroke="#fff" stroke-linecap="round" stroke-linejoin="round" stroke-width="1.113"/>
        </g>
        <path id="Path_232" data-name="Path 232" d="M218.273,45.276h-.051V43.218a4.091,4.091,0,1,0-8.181,0v2.058h-.052V43.218a4.142,4.142,0,0,1,8.284,0Z" transform="translate(-204.869 -39.076)" fill="none" stroke="#fff" stroke-linecap="round" stroke-linejoin="round" stroke-width="1.113"/>
      </g>
      <g id="Group_369" data-name="Group 369" transform="translate(12.349 8.232)">
        <path id="Path_233" data-name="Path 233" d="M230.154,51.341v11.32a2.059,2.059,0,0,1-2.059,2.058h-8.232a2.058,2.058,0,0,1-2.058-2.058V51.341Z" transform="translate(-217.805 -48.229)" fill="none" stroke="#fff" stroke-linecap="round" stroke-linejoin="round" stroke-width="1.113"/>
        <path id="Path_234" data-name="Path 234" d="M227.341,53.146h-.052V51.088a3.062,3.062,0,0,0-6.123,0v2.058h-.051V51.088a3.113,3.113,0,0,1,6.226,0Z" transform="translate(-218.053 -47.976)" fill="none" stroke="#fff" stroke-linecap="round" stroke-linejoin="round" stroke-width="1.113"/>
      </g>
    </g>
  </g>
</svg>
